<?xml version="1.0" standalone="no"?>
<!DOCTYPE svg PUBLIC "-//W3C//DTD SVG 20010904//EN"
 "http://www.w3.org/TR/2001/REC-SVG-20010904/DTD/svg10.dtd">
<svg version="1.0" xmlns="http://www.w3.org/2000/svg"
 width="711.000000pt" height="603.000000pt" viewBox="0 0 711.000000 603.000000"
 preserveAspectRatio="xMidYMid meet">

<g transform="translate(0.000000,603.000000) scale(0.100000,-0.100000)"
fill="#000000" stroke="none">
<path d="M2307 5632 c-11 -5 124 -49 375 -125 l393 -117 901 0 c897 0 901 0
928 -21 l26 -20 0 -1604 c0 -1563 0 -1603 -19 -1626 l-19 -24 -394 -3 c-216
-2 -412 0 -435 3 l-43 6 0 198 0 198 61 7 c34 3 91 6 126 6 55 0 68 4 88 25
35 34 33 78 -4 116 -29 28 -32 29 -134 29 -58 0 -112 3 -121 6 -14 5 -16 27
-16 140 l0 134 320 0 c341 0 365 3 390 49 21 41 8 100 -27 117 -10 5 -166 11
-348 14 l-330 5 -3 137 -3 137 337 3 336 3 24 28 c33 39 31 81 -5 118 l-29 29
-331 0 -331 0 0 140 0 140 331 0 331 0 29 29 c39 40 39 82 0 122 l-29 29 -331
0 -331 0 0 140 0 140 331 0 331 0 29 29 c36 37 38 79 5 118 l-24 28 -336 3
-337 3 3 137 3 137 233 5 234 5 24 28 c31 36 31 78 0 114 l-24 28 -259 5 -258
5 3 -1828 c2 -1826 2 -1827 -18 -1868 -25 -49 -72 -79 -124 -79 -22 0 -370 99
-806 230 -422 127 -771 230 -776 230 -5 -1 8 -10 28 -20 43 -23 1525 -468
1583 -476 57 -7 104 20 133 76 21 41 22 57 22 237 l0 192 458 3 457 3 67 33
c76 37 120 82 157 162 l26 55 0 1730 0 1730 -28 56 c-32 66 -99 132 -165 162
l-47 22 -1310 2 c-720 1 -1318 -1 -1328 -5z"/>
<path d="M2050 4477 l0 -174 104 -6 c182 -11 381 -60 559 -136 90 -39 165 -21
216 49 53 74 53 154 0 214 -50 57 -310 153 -514 190 -87 15 -281 36 -337 36
l-28 0 0 -173z"/>
<path d="M2050 3912 l0 -170 68 -7 c104 -10 215 -34 310 -67 94 -32 132 -32
188 3 39 24 84 106 84 153 0 50 -32 110 -72 134 -84 52 -311 109 -473 119
l-105 6 0 -171z"/>
<path d="M2050 3382 l0 -171 38 -6 c20 -3 59 -10 85 -15 67 -14 113 -12 145 4
89 46 130 172 80 246 -46 67 -116 95 -265 107 l-83 6 0 -171z"/>
<path d="M2050 2825 l0 -267 38 7 c102 19 189 93 216 186 20 66 20 82 0 148
-27 92 -115 170 -211 186 l-43 7 0 -267z"/>
<path d="M4068 975 c-35 -20 -48 -44 -48 -93 0 -49 26 -74 106 -105 53 -21 59
-26 59 -53 0 -24 -4 -30 -27 -32 -19 -2 -31 3 -40 17 -17 28 -98 31 -98 3 0
-46 68 -92 137 -92 82 0 141 57 129 124 -8 43 -34 65 -109 96 -66 27 -83 54
-52 80 13 11 20 10 45 -8 35 -26 110 -31 110 -7 0 8 -13 29 -29 47 -25 29 -35
32 -92 35 -44 2 -72 -1 -91 -12z"/>
<path d="M4435 977 c-74 -34 -117 -124 -101 -211 29 -155 245 -197 333 -65 23
35 28 53 28 103 -1 112 -62 178 -169 183 -37 2 -73 -2 -91 -10z m140 -90 c52
-44 39 -154 -21 -177 -44 -17 -74 -11 -105 19 -23 23 -29 38 -29 71 0 72 31
109 92 110 24 0 46 -8 63 -23z"/>
<path d="M4750 805 l0 -186 103 3 102 3 3 33 3 32 -60 0 -61 0 0 150 0 150
-45 0 -45 0 0 -185z"/>
<path d="M5000 858 c0 -153 12 -191 70 -221 45 -23 130 -18 168 10 51 37 62
75 62 216 l0 127 -45 0 -45 0 0 -125 c0 -112 -2 -127 -20 -145 -25 -25 -51
-25 -81 -1 -23 18 -24 27 -27 145 l-4 126 -39 0 -39 0 0 -132z"/>
<path d="M5340 955 l0 -35 50 0 50 0 0 -150 0 -150 40 0 40 0 0 150 0 150 50
0 50 0 0 35 0 35 -140 0 -140 0 0 -35z"/>
<path d="M5660 805 l0 -185 45 0 45 0 0 185 0 185 -45 0 -45 0 0 -185z"/>
<path d="M5902 973 c-69 -34 -110 -117 -98 -198 19 -117 143 -186 253 -140 50
21 72 42 94 90 45 98 5 211 -88 251 -43 19 -120 17 -161 -3z m139 -76 c26 -20
39 -53 39 -97 0 -102 -130 -138 -176 -49 -23 45 -13 107 21 136 29 26 89 31
116 10z"/>
<path d="M6222 808 l3 -183 42 -3 42 -3 3 112 3 113 74 -112 74 -112 43 0 44
0 0 185 0 185 -45 0 -44 0 -3 -112 -3 -112 -72 112 -72 112 -46 0 -45 0 2
-182z"/>
<path d="M6633 955 c-32 -32 -35 -40 -30 -76 7 -51 26 -72 85 -94 26 -10 57
-24 70 -31 25 -16 29 -52 7 -60 -23 -9 -65 5 -65 21 0 11 -13 15 -51 15 -48 0
-50 -1 -43 -22 27 -92 175 -120 243 -47 15 16 21 36 21 66 0 54 -25 82 -95
108 -28 10 -58 26 -68 35 -19 18 -15 45 9 54 18 7 54 -10 54 -24 0 -6 22 -10
49 -10 l50 0 -11 31 c-16 45 -61 69 -131 69 -54 0 -62 -3 -94 -35z"/>
</g>
</svg>
